HIERARCHY
ROOT Hips
{
  OFFSET -125.086 92.215 135.881
  CHANNELS 6 Xposition Yposition Zposition Zrotation Xrotation Yrotation
  JOINT LeftUpLeg
  {
    OFFSET 8.64259 1.95398 -2.38835
    CHANNELS 3 Zrotation Xrotation Yrotation
    JOINT LeftLeg
    {
      OFFSET 43.7702 0 0
      CHANNELS 3 Zrotation Xrotation Yrotation
      JOINT LeftFoot
      {
        OFFSET 40.6238 0 0
        CHANNELS 3 Zrotation Xrotation Yrotation
        JOINT LeftToeBase
        {
          OFFSET 12.7242 0 0
          CHANNELS 3 Zrotation Xrotation Yrotation
          End Site
          {
            OFFSET 0 0 0
          }
        }
      }
    }
  }
  JOINT RightUpLeg
  {
    OFFSET -8.2249 1.95398 -2.59336
    CHANNELS 3 Zrotation Xrotation Yrotation
    JOINT RightLeg
    {
      OFFSET 43.5653 0 0
      CHANNELS 3 Zrotation Xrotation Yrotation
      JOINT RightFoot
      {
        OFFSET 40.6238 0 0
        CHANNELS 3 Zrotation Xrotation Yrotation
        JOINT RightToeBase
        {
          OFFSET 12.7242 0 0
          CHANNELS 3 Zrotation Xrotation Yrotation
          End Site
          {
            OFFSET 0 0 0
          }
        }
      }
    }
  }
  JOINT Spine
  {
    OFFSET 0.165834 0.87714 6.61349
    CHANNELS 3 Zrotation Xrotation Yrotation
    JOINT Spine1
    {
      OFFSET 7.38963 1.71661e-005 0
      CHANNELS 3 Zrotation Xrotation Yrotation
      JOINT Spine2
      {
        OFFSET 11.9445 1.14441e-005 0
        CHANNELS 3 Zrotation Xrotation Yrotation
        JOINT Spine3
        {
          OFFSET 14.7254 4.19617e-005 0
          CHANNELS 3 Zrotation Xrotation Yrotation
          JOINT Spine4
          {
            OFFSET 10.9679 0 0
            CHANNELS 3 Zrotation Xrotation Yrotation
            JOINT RightShoulder
            {
              OFFSET 2.46616 -1.6653 3.69651
              CHANNELS 3 Zrotation Xrotation Yrotation
              JOINT RightArm
              {
                OFFSET 13.0012 0 0
                CHANNELS 3 Zrotation Xrotation Yrotation
                JOINT RightForeArm
                {
                  OFFSET 28.7848 1.52588e-005 0
                  CHANNELS 3 Zrotation Xrotation Yrotation
                  JOINT RightHand
                  {
                    OFFSET 26.5688 1.52588e-005 0
                    CHANNELS 3 Zrotation Xrotation Yrotation
                    End Site
                    {
                      OFFSET 0 0 0
                    }
                  }
                }
              }
            }
            JOINT LeftShoulder
            {
              OFFSET 2.38034 -1.29275 -3.7523
              CHANNELS 3 Zrotation Xrotation Yrotation
              JOINT LeftArm
              {
                OFFSET 16.3182 6.10352e-005 0
                CHANNELS 3 Zrotation Xrotation Yrotation
                JOINT LeftForeArm
                {
                  OFFSET 27.0901 0 0
                  CHANNELS 3 Zrotation Xrotation Yrotation
                  JOINT LeftHand
                  {
                    OFFSET 24.5451 1.52588e-005 0
                    CHANNELS 3 Zrotation Xrotation Yrotation
                    End Site
                    {
                      OFFSET 0 0 0
                    }
                  }
                }
              }
            }
            JOINT Neck
            {
              OFFSET 5.0226 -0.0266342 0
              CHANNELS 3 Zrotation Xrotation Yrotation
              JOINT Head
              {
                OFFSET 6.69363 2.86102e-005 0
                CHANNELS 3 Zrotation Xrotation Yrotation
                End Site
                {
                  OFFSET 0 0 0
                }
              }
            }
          }
        }
      }
    }
  }
}
MOTION
Frames:	11
Frame Time:	0.0416667
36.1584 86.9924 -308.992 -32.5809 -69.2687 -26.6695 164.192 -8.76156 49.9919 -90.2429 -7.30487 87.3306 -66.5984 22.1712 25.4689 -5.72648 -23.3804 57.8722 169.006 55.3768 108.794 -35.3108 15.9786 3.07002 46.097 7.23336 48.9139 79.9276 50.7095 123.663 1.79171 8.0035 -90.1253 10.8799 3.50949 -0.578977 -0.786478 3.4806 -0.733072 -23.3594 3.52104 0.503864 -3.34675 3.52104 0.503869 103.388 -41.7758 -80.0369 41.3612 -7.00297 13.0033 18.988 -2.36807 -113.342 100.866 50.4151 37.0089 72.5578 -61.8488 -105.497 -101.74 39.2858 -106.566 -116.891 19.1191 179.918 21.8725 -2.60643 -16.0448 137.448 13.4852 -7.42871 -129.152 11.2651 6.34193 
36.0884 86.888 -309.768 -32.3522 -69.1944 -26.6155 164.421 -9.41855 49.4149 -89.9532 -7.31606 87.4861 -67.5106 21.5355 25.2675 -5.0236 -23.2165 58.2611 169.193 55.5289 108.621 -34.6506 18.5044 2.94545 45.1441 7.09461 50.743 76.6677 49.8939 127.653 1.77689 7.99701 -90.0981 10.892 3.49249 -0.523912 -0.774421 3.46604 -0.677295 -23.3469 3.48828 0.551252 -3.33422 3.48828 0.551266 103.307 -41.5163 -80.1704 41.9704 -7.05746 13.7835 18.5818 -2.42759 -113.967 99.4174 50.6933 38.2539 72.9457 -61.6251 -105.145 -104.607 40.4222 -104.636 -115.901 14.4532 179.859 22.4013 -2.70408 -16.2294 137.498 13.5976 -7.60056 -129.331 11.0444 6.65863 
35.8843 86.5814 -312.001 -31.697 -68.982 -26.4736 164.99 -11.3799 47.8263 -89.0603 -7.18055 87.9903 -70.2295 19.741 24.5308 -2.8986 -22.7128 59.4702 169.789 55.8962 108.077 -32.5356 25.7878 2.58705 42.0538 6.33876 55.7424 71.4916 48.6581 134.645 1.73354 7.97855 -90.019 10.9264 3.44259 -0.363436 -0.740116 3.42325 -0.514776 -23.3111 3.39247 0.689238 -3.29842 3.39246 0.689229 103.083 -40.7727 -80.5436 43.7476 -7.21775 16.0333 17.4423 -2.56449 -115.76 95.559 51.3927 41.6469 73.9945 -60.9825 -104.194 -112.485 42.9853 -98.9271 -114.078 3.59131 -179.153 23.789 -2.9691 -16.7133 137.64 13.9194 -8.08783 -129.835 10.4267 7.54714 
35.5537 86.0802 -315.534 -30.6647 -68.6476 -26.2863 165.597 -14.6016 45.5501 -87.5425 -6.40977 88.877 -74.9173 17.045 22.8494 0.805252 -21.7956 61.7033 170.912 56.2298 107.077 -28.4462 37.257 1.99178 36.4879 3.74226 62.375 72.8398 51.5366 135.655 1.66261 7.94944 -89.8909 10.9804 3.36046 -0.103047 -0.686234 3.35265 -0.25103 -23.2545 3.23589 0.912753 -3.24189 3.2359 0.912758 102.755 -39.6033 -81.1032 46.6453 -7.48132 19.5996 15.6927 -2.65022 -118.581 90.3042 52.2572 46.4579 75.4673 -59.9707 -102.856 -123.56 45.2715 -90.0215 -112.039 -2.4531 -173.479 25.665 -3.34761 -17.3632 137.856 14.4244 -8.83725 -130.608 9.50315 8.88554 
35.1037 85.4002 -320.212 -29.3039 -68.2072 -26.1043 165.88 -18.7427 43.0491 -85.589 -4.27523 89.8816 -82.1521 13.9018 19.5663 6.39468 -20.3066 65.45 172.769 56.0359 105.445 -21.1208 49.2507 0.951798 29.041 0.271931 66.5391 91.8646 60.6085 118.754 1.5643 7.91095 -89.7157 11.0519 3.24579 0.253365 -0.615047 3.25379 0.110108 -23.1792 3.01945 1.21802 -3.16651 3.01944 1.21802 102.366 -38.0715 -81.79 50.6495 -7.84195 24.2906 13.4069 -2.45517 -122.252 84.6414 53.0794 51.8931 77.1013 -58.6486 -101.363 -135.194 46.0598 -79.6057 -109.39 -5.76904 -166.5 27.7351 -3.78393 -18.0425 138.129 15.0783 -9.78547 -131.587 8.38331 10.5301 
34.7545 84.617 -325.822 -35.7374 -71.2735 -29.6017 170.018 -27.363 46.2536 -64.8324 -4.07404 90.6981 -89.75 11.2121 36.2599 14.1266 -17.8741 71.6779 174.093 50.5941 107.638 -10.1233 64.9523 0.356253 21.01 -6.04321 67.0813 137.845 62.1462 73.5532 1.59992 8.32756 -89.92 10.3035 3.2263 -0.293971 -1.36239 3.2102 -0.435839 -23.9368 3.16525 0.690233 -3.92419 3.16525 0.690215 101.957 -36.2443 -82.5471 55.763 -8.2752 29.8588 10.636 -1.6749 -126.528 79.2632 53.7576 57.3019 78.666 -57.0856 -99.9137 -144.99 45.271 -69.701 -106.447 -7.99481 -160.314 29.847 -4.22439 -18.6163 137.474 16.2666 -10.7926 -136.543 6.40687 12.7358 
34.5938 84.0594 -333.097 -148.357 -78.2677 -135.172 -172.742 -53.9011 60.3894 -17.9845 -3.74964 91.7022 -95.9576 2.326 74.6162 24.7944 -15.6245 85.8442 177.362 28.0489 106.782 -7.05116 78.9843 -0.587924 16.4521 -9.40313 67.161 165.023 49.9611 45.4285 1.88773 11.065 -91.0075 4.82479 3.34561 -1.83603 -6.84201 3.26151 -1.98158 -29.4185 3.74257 -0.744579 -9.40587 3.74257 -0.744579 101.56 -34.1941 -83.325 61.9726 -8.72707 35.9931 7.47149 0.00349047 -131.07 74.5794 54.2731 62.2197 79.9882 -55.3602 -98.6522 -151.869 43.5488 -61.4325 -103.613 -9.04569 -155.428 31.9336 -4.61639 -18.9622 138.063 16.9895 -11.928 -136.785 5.41814 14.4161 
33.5233 83.132 -341.021 -152.407 -73.1513 -148.277 164.495 -67.6758 35.7241 -57.2985 11.3733 81.0059 -146.682 28.8092 5.11636 -1.13795 -36.6189 96.082 177.664 26.2384 101.388 14.0376 83.3928 -22.5464 12.9342 -13.0925 66.5997 171.51 40.0171 36.8018 1.43585 11.7221 -89.818 3.41606 2.94209 0.356071 -8.25171 2.95492 0.226111 -30.809 2.69899 1.22444 -10.7964 2.699 1.22445 101.199 -31.9989 -84.0845 69.2038 -9.11221 42.3352 4.06463 2.7994 -135.458 70.7787 54.6484 66.3649 80.9572 -53.5576 -97.6635 -156.015 41.5606 -54.8897 -101.098 -9.22662 -152.003 33.9569 -4.91395 -19.0002 138.626 17.6968 -13.0866 -137.298 4.45444 16.089 
32.8169 81.9604 -348.506 -155.043 -73.9175 -149.264 173.325 -68.8491 44.2359 -32.3966 10.0648 73.0847 53.5244 28.715 128.072 -5.25184 31.6946 -57.9591 178.366 30.2653 102.633 128.051 85.7841 -136.358 10.5002 -14.9253 64.9611 172.699 33.61 33.2881 1.37979 11.6876 -89.9329 3.49559 2.78337 0.1396 -8.17238 2.78682 0.0168609 -30.7292 2.61264 0.970238 -10.7166 2.61264 0.970224 100.886 -29.7361 -84.7996 77.2876 -9.32837 48.5457 0.590036 6.74731 -139.289 67.8846 54.9174 69.6273 81.5276 -51.7588 -96.9774 -158.132 39.6952 -49.7077 -98.9511 -8.88761 -149.921 35.8837 -5.08722 -18.7115 139.22 18.2905 -14.2293 -137.772 3.60367 17.6557 
32.0204 80.7246 -356.367 -158.193 -74.3536 -151.123 -178.497 -70.3438 53.5044 -44.8162 11.9196 74.9851 68.7235 -39.3008 163.991 73.5615 -18.9008 -53.3834 178.993 33.9688 103.271 155.201 78.8951 -163.294 8.79647 -16.3144 62.8204 171.829 30.1133 31.9747 1.29584 11.6898 -89.999 3.49242 2.58928 0.00970108 -8.17595 2.58719 -0.104349 -30.7304 2.46658 0.787925 -10.7178 2.46657 0.787916 100.626 -27.4759 -85.4571 85.9664 -9.29136 54.3608 -2.82406 11.6924 -142.275 65.8261 55.111 72.0178 81.7066 -50.0326 -96.5821 -158.914 38.1108 -45.499 -97.1445 -8.30288 -148.95 37.6797 -5.12466 -18.1252 139.823 18.7137 -15.3268 -138.199 2.86519 19.0837 
31.1922 79.4653 -364.347 -161.844 -74.6984 -153.553 -165.277 -74.3194 69.13 -105.125 24.3514 89.8294 127.368 -21.5358 -103.652 80.3714 -36.6061 -72.5518 179.589 37.4351 103.411 161.348 72.6475 -169.225 7.72578 -17.2781 60.536 170.315 28.258 31.5897 1.19502 11.7027 -90.0567 3.46828 2.36484 -0.103101 -8.20053 2.358 -0.207147 -30.7522 2.28643 0.612791 -10.7395 2.28643 0.612771 100.413 -25.2799 -86.054 94.9262 -8.9602 59.6071 -6.13274 17.3488 -144.265 64.4843 55.2482 73.6198 81.5361 -48.4337 -96.4423 -158.904 36.8393 -41.9731 -95.6291 -7.66 -148.831 39.3121 -5.02971 -17.2975 140.386 18.9753 -16.3744 -138.698 2.2567 20.3706 
